<svg width="209" height="128" viewBox="0 0 209 128" fill="none" xmlns="http://www.w3.org/2000/svg">
<path d="M69.4286 63.8333C75.7929 63.8333 81 58.5833 81 52.1667V34.6667C81 28.25 75.7929 23 69.4286 23H11.5714C5.20714 23 0 28.25 0 34.6667V52.1667C0 58.5833 5.20714 63.8333 11.5714 63.8333H17.3571V75.5H11.5714C5.20714 75.5 0 80.75 0 87.1667V128H11.5714V110.5H69.4286V128H81V87.1667C81 80.75 75.7929 75.5 69.4286 75.5H63.6429V63.8333H69.4286ZM11.5714 52.1667V34.6667H69.4286V52.1667H11.5714ZM69.4286 98.8333H11.5714V87.1667H69.4286V98.8333ZM52.0714 75.5H28.9286V63.8333H52.0714V75.5Z" fill="black"/>
<path d="M173.161 42.0884C179.078 39.6495 181.924 32.8128 179.485 26.8957L172.833 10.7583C170.394 4.84124 163.558 1.9955 157.641 4.43444L103.849 26.6066C97.9321 29.0455 95.0864 35.8822 97.5253 41.7993L104.177 57.9367C106.616 63.8538 113.453 66.6995 119.37 64.2606L124.749 62.0434L129.183 72.8017L123.804 75.0189C117.887 77.4578 115.041 84.2945 117.48 90.2116L133.001 127.866L143.759 123.431L137.107 107.294L190.899 85.1216L197.551 101.259L208.309 96.8246L192.788 59.1706C190.349 53.2535 183.513 50.4078 177.596 52.8467L172.216 55.064L167.782 44.3057L173.161 42.0884ZM114.935 53.5023L108.284 37.3649L162.075 15.1927L168.727 31.3302L114.935 53.5023ZM186.464 74.3633L132.673 96.5355L128.239 85.7772L182.03 63.605L186.464 74.3633ZM161.458 59.4984L139.942 68.3672L135.507 57.609L157.024 48.7401L161.458 59.4984Z" fill="black"/>
</svg>
