<svg width="768" height="631" viewBox="0 0 768 631" fill="none" xmlns="http://www.w3.org/2000/svg">
<path d="M754 455.101L752 463.101C749 471.101 745 479.101 742 487.101C742 489.101 740 493.101 739 495.101C707 566.101 647 600.101 554 617.101C549 618.101 540 620.101 531 621.101C441 632.101 373 634.101 283 626.101C280 626.101 276 625.101 274 625.101C149 611.101 75 566.101 36 494.101C35 493.101 33 490.101 32 486.101C28 479.101 25 470.101 22 463.101C20 459.101 19 457.101 18 454.101C5 417.101 0 374.101 0 326.101C0 242.101 26 209.101 61 164.101C34 68.1012 72 2.10125 72 2.10125C72 2.10125 129 -9.89875 237 67.1012C295 42.1012 450 40.1012 524 62.1012C569 32.1012 652 -9.89875 686 2.10125C694 16.1012 713 58.1012 697 151.101C708 171.101 768 215.101 768 338.101C767 383.101 762 422.101 754 455.101ZM99 426.101C99 537.101 177 586.101 286 595.101C293 596.101 300 596.101 308 597.101C359 598.101 423 599.101 486 597.101C500 596.101 514 595.101 527 593.101C631 578.101 674 518.101 674 434.101C674 373.101 646 293.101 534 293.101C526 293.101 460 301.101 397 301.101C326 301.101 253 293.101 242 293.101C127 293.101 99 384.101 99 426.101ZM231 375.101C253 375.101 270 401.101 270 433.101C270 465.101 253 491.101 231 491.101C209 491.101 193 465.101 193 433.101C193 401.101 209 375.101 231 375.101ZM554 491.101C531 491.101 514 465.101 514 433.101C514 401.101 531 375.101 554 375.101C576 375.101 593 401.101 593 433.101C593 465.101 576 491.101 554 491.101ZM388 519.101C378 519.101 370 510.101 370 500.101C370 491.101 378 483.101 388 483.101C398 483.101 407 491.101 407 500.101C407 510.101 398 519.101 388 519.101ZM389 579.101C360 579.101 337 554.101 337 539.101C337 533.101 341 528.101 347 528.101C353 528.101 357 533.101 357 539.101C358 542.101 371 559.101 389 559.101C403 559.101 416 547.101 416 539.101C416 533.101 421 528.101 426 528.101C432 528.101 437 533.101 437 539.101C437 557.101 417 579.101 389 579.101Z" fill="black"/>
</svg>
